<svg width="480" height="500" viewBox="0 0 480 500" fill="none" xmlns="http://www.w3.org/2000/svg">
<path fill-rule="evenodd" clip-rule="evenodd" d="M115 16C115 7.16344 122.163 0 131 0H240H349C357.837 0 365 7.16345 365 16V109C365 117.837 372.163 125 381 125H464C472.837 125 480 132.163 480 141V250V375V484C480 492.837 472.837 500 464 500H371C362.163 500 355 492.837 355 484V391C355 382.163 347.837 375 339 375H246C237.163 375 230 367.837 230 359V266C230 257.163 222.837 250 214 250H141C132.163 250 125 257.163 125 266V375V484C125 492.837 117.837 500 109 500H16C7.16344 500 0 492.837 0 484V375V266C0 257.163 7.16344 250 16 250H99C107.837 250 115 242.837 115 234V125V16ZM339 250C347.837 250 355 242.837 355 234V141C355 132.163 347.837 125 339 125H256C247.163 125 240 132.163 240 141V234C240 242.837 247.163 250 256 250H339Z" fill="white"/>
</svg>
