<svg width="635" height="635" viewBox="0 0 635 635" fill="none" xmlns="http://www.w3.org/2000/svg">
<rect width="635" height="635" rx="20" fill="#F4F4F4"/>
<path fill-rule="evenodd" clip-rule="evenodd" d="M232.595 203C232.595 197.477 237.072 193 242.595 193H301.72H360.845C366.368 193 370.845 197.477 370.845 203V252.125C370.845 257.648 375.322 262.125 380.845 262.125H424.44C429.963 262.125 434.44 266.603 434.44 272.125V331.251V400.376V459.501C434.44 465.024 429.963 469.501 424.44 469.501H375.315C369.792 469.501 365.315 465.024 365.315 459.501V410.376C365.315 404.853 360.837 400.376 355.315 400.376H306.189C300.666 400.376 296.189 395.899 296.189 390.376V341.251C296.189 335.728 291.712 331.251 286.189 331.251H248.125C242.603 331.251 238.125 335.728 238.125 341.251V400.376V459.501C238.125 465.024 233.648 469.501 228.125 469.501H179C173.477 469.501 169 465.024 169 459.501V400.376V341.251C169 335.728 173.477 331.251 179 331.251H222.595C228.117 331.251 232.595 326.774 232.595 321.251V262.125V203ZM355.315 331.251C360.837 331.251 365.315 326.774 365.315 321.251V272.125C365.315 266.603 360.837 262.125 355.315 262.125H311.72C306.197 262.125 301.72 266.603 301.72 272.125V321.251C301.72 326.774 306.197 331.251 311.72 331.251H355.315Z" fill="black"/>
</svg>
