<svg width="635" height="635" viewBox="0 0 635 635" fill="none" xmlns="http://www.w3.org/2000/svg">
<rect width="635" height="635" rx="317.5" fill="#F4F4F4"/>
<path fill-rule="evenodd" clip-rule="evenodd" d="M240.595 208C240.595 202.477 245.072 198 250.595 198H309.72H368.845C374.368 198 378.845 202.477 378.845 208V257.125C378.845 262.648 383.322 267.125 388.845 267.125H432.44C437.963 267.125 442.44 271.603 442.44 277.125V336.251V405.376V464.501C442.44 470.024 437.963 474.501 432.44 474.501H383.315C377.792 474.501 373.315 470.024 373.315 464.501V415.376C373.315 409.853 368.837 405.376 363.315 405.376H314.189C308.666 405.376 304.189 400.899 304.189 395.376V346.251C304.189 340.728 299.712 336.251 294.189 336.251H256.125C250.603 336.251 246.125 340.728 246.125 346.251V405.376V464.501C246.125 470.024 241.648 474.501 236.125 474.501H187C181.477 474.501 177 470.024 177 464.501V405.376V346.251C177 340.728 181.477 336.251 187 336.251H230.595C236.117 336.251 240.595 331.774 240.595 326.251V267.125V208ZM363.315 336.251C368.837 336.251 373.315 331.774 373.315 326.251V277.125C373.315 271.603 368.837 267.125 363.315 267.125H319.72C314.197 267.125 309.72 271.603 309.72 277.125V326.251C309.72 331.774 314.197 336.251 319.72 336.251H363.315Z" fill="black"/>
</svg>
