<svg width="480" height="500" viewBox="0 0 480 500" fill="none" xmlns="http://www.w3.org/2000/svg">
<path fill-rule="evenodd" clip-rule="evenodd" d="M115 20C115 8.9543 123.954 0 135 0H240H345C356.046 0 365 8.95431 365 20V105C365 116.046 373.954 125 385 125H460C471.046 125 480 133.954 480 145V250V375V480C480 491.046 471.046 500 460 500H375C363.954 500 355 491.046 355 480V395C355 383.954 346.046 375 335 375H250C238.954 375 230 366.046 230 355V270C230 258.954 221.046 250 210 250H145C133.954 250 125 258.954 125 270V375V480C125 491.046 116.046 500 105 500H20C8.9543 500 0 491.046 0 480V375V270C0 258.954 8.95431 250 20 250H95C106.046 250 115 241.046 115 230V125V20ZM335 250C346.046 250 355 241.046 355 230V145C355 133.954 346.046 125 335 125H260C248.954 125 240 133.954 240 145V230C240 241.046 248.954 250 260 250H335Z" fill="url(#paint0_radial_186_59)"/>
<defs>
<radialGradient id="paint0_radial_186_59" cx="0" cy="0" r="1" gradientUnits="userSpaceOnUse" gradientTransform="translate(121.5 69) rotate(55.1602) scale(1402.98 1346.86)">
<stop stop-color="#D5D2FF"/>
<stop offset="1" stop-color="#066DFF"/>
</radialGradient>
</defs>
</svg>
