<svg width="635" height="635" viewBox="0 0 635 635" fill="none" xmlns="http://www.w3.org/2000/svg">
<mask id="mask0_186_87" style="mask-type:alpha" maskUnits="userSpaceOnUse" x="0" y="0" width="635" height="635">
<rect width="635" height="635" rx="20" fill="white"/>
</mask>
<g mask="url(#mask0_186_87)">
<rect width="635" height="635" rx="20" fill="#000123"/>
<rect x="2" y="2" width="631" height="631" rx="18" fill="#000123" stroke="white" stroke-width="4"/>
<path d="M-89.625 -260.315C-89.625 -271.361 -80.6707 -280.315 -69.625 -280.315H2750.74C2761.78 -280.315 2770.74 -271.361 2770.74 -260.315V653.138C2770.74 664.184 2761.78 673.138 2750.74 673.138H-69.6251C-80.6708 673.138 -89.625 664.184 -89.625 653.138V-260.315Z" fill="black"/>
</g>
<path fill-rule="evenodd" clip-rule="evenodd" d="M242.845 198.784C242.845 193.261 247.322 188.784 252.845 188.784H311.97H371.095C376.618 188.784 381.095 193.261 381.095 198.784V247.909C381.095 253.432 385.572 257.909 391.095 257.909H434.69C440.213 257.909 444.69 262.386 444.69 267.909V327.034V396.16V455.285C444.69 460.808 440.213 465.285 434.69 465.285H385.565C380.042 465.285 375.565 460.808 375.565 455.285V406.16C375.565 400.637 371.087 396.16 365.565 396.16H316.439C310.916 396.16 306.439 391.683 306.439 386.16V337.034C306.439 331.512 301.962 327.034 296.439 327.034H258.375C252.853 327.034 248.375 331.512 248.375 337.034V396.16V455.285C248.375 460.808 243.898 465.285 238.375 465.285H189.25C183.727 465.285 179.25 460.808 179.25 455.285V396.16V337.034C179.25 331.512 183.727 327.034 189.25 327.034H232.845C238.367 327.034 242.845 322.557 242.845 317.034V257.909V198.784ZM365.565 327.034C371.087 327.034 375.565 322.557 375.565 317.034V267.909C375.565 262.386 371.087 257.909 365.565 257.909H321.97C316.447 257.909 311.97 262.386 311.97 267.909V317.034C311.97 322.557 316.447 327.034 321.97 327.034H365.565Z" fill="#F4F4F4"/>
</svg>
