<svg width="635" height="635" viewBox="0 0 635 635" fill="none" xmlns="http://www.w3.org/2000/svg">
<mask id="mask0_186_118" style="mask-type:alpha" maskUnits="userSpaceOnUse" x="0" y="0" width="635" height="635">
<rect width="635" height="635" rx="317.5" fill="white"/>
</mask>
<g mask="url(#mask0_186_118)">
<rect width="635" height="635" rx="317.5" fill="#000123"/>
<rect x="2" y="2" width="631" height="631" rx="315.5" fill="#000123" stroke="white" stroke-width="4"/>
<path d="M-89.625 196.411C-89.625 -66.8775 123.813 -280.315 387.102 -280.315H2294.01C2557.3 -280.315 2770.74 -66.8775 2770.74 196.411C2770.74 459.7 2557.3 673.138 2294.01 673.138H387.102C123.813 673.138 -89.625 459.7 -89.625 196.411Z" fill="black"/>
</g>
<path fill-rule="evenodd" clip-rule="evenodd" d="M242.845 191.784C242.845 186.261 247.322 181.784 252.845 181.784H311.97H371.095C376.618 181.784 381.095 186.261 381.095 191.784V240.909C381.095 246.432 385.572 250.909 391.095 250.909H434.69C440.213 250.909 444.69 255.386 444.69 260.909V320.034V389.16V448.285C444.69 453.808 440.213 458.285 434.69 458.285H385.565C380.042 458.285 375.565 453.808 375.565 448.285V399.16C375.565 393.637 371.087 389.16 365.565 389.16H316.439C310.916 389.16 306.439 384.683 306.439 379.16V330.034C306.439 324.512 301.962 320.034 296.439 320.034H258.375C252.853 320.034 248.375 324.512 248.375 330.034V389.16V448.285C248.375 453.808 243.898 458.285 238.375 458.285H189.25C183.727 458.285 179.25 453.808 179.25 448.285V389.16V330.034C179.25 324.512 183.727 320.034 189.25 320.034H232.845C238.367 320.034 242.845 315.557 242.845 310.034V250.909V191.784ZM365.565 320.034C371.087 320.034 375.565 315.557 375.565 310.034V260.909C375.565 255.386 371.087 250.909 365.565 250.909H321.97C316.447 250.909 311.97 255.386 311.97 260.909V310.034C311.97 315.557 316.447 320.034 321.97 320.034H365.565Z" fill="#F4F4F4"/>
</svg>
