<svg width="244" height="254" viewBox="0 0 244 254" fill="none" xmlns="http://www.w3.org/2000/svg">
<path fill-rule="evenodd" clip-rule="evenodd" d="M58.3132 10.1414C58.3132 4.54047 62.8537 0 68.4547 0H121.697H174.94C180.541 0 185.081 4.54048 185.081 10.1414V53.2425C185.081 58.8435 189.622 63.384 195.223 63.384H233.253C238.854 63.384 243.394 67.9244 243.394 73.5254V126.768V190.152V243.394C243.394 248.995 238.854 253.536 233.253 253.536H190.152C184.551 253.536 180.01 248.995 180.01 243.394V200.293C180.01 194.692 175.47 190.152 169.869 190.152H126.768C121.167 190.152 116.626 185.611 116.626 180.01V136.909C116.626 131.308 112.086 126.768 106.485 126.768H73.5254C67.9244 126.768 63.384 131.308 63.384 136.909V190.152V243.394C63.384 248.995 58.8435 253.536 53.2425 253.536H10.1414C4.54047 253.536 0 248.995 0 243.394V190.152V136.909C0 131.308 4.54048 126.768 10.1414 126.768H48.1718C53.7728 126.768 58.3132 122.227 58.3132 116.626V63.384V10.1414ZM169.869 126.768C175.47 126.768 180.01 122.227 180.01 116.626V73.5254C180.01 67.9244 175.47 63.384 169.869 63.384H131.839C126.238 63.384 121.697 67.9244 121.697 73.5254V116.626C121.697 122.227 126.238 126.768 131.839 126.768H169.869Z" fill="url(#paint0_radial_436_640)"/>
<defs>
<radialGradient id="paint0_radial_436_640" cx="0" cy="0" r="1" gradientUnits="userSpaceOnUse" gradientTransform="translate(61.6092 34.988) rotate(55.6402) scale(513.637 493.091)">
<stop stop-color="#C4DCFF"/>
<stop offset="0.587971" stop-color="#FFA6C9"/>
</radialGradient>
</defs>
</svg>
