<svg width="245" height="254" viewBox="0 0 245 254" fill="none" xmlns="http://www.w3.org/2000/svg">
<path fill-rule="evenodd" clip-rule="evenodd" d="M59.1687 10.1414C59.1687 4.54047 63.7092 0 69.3102 0H122.553H175.795C181.396 0 185.937 4.54048 185.937 10.1414V53.2425C185.937 58.8435 190.477 63.384 196.078 63.384H234.108C239.709 63.384 244.25 67.9244 244.25 73.5254V126.768V190.152V243.394C244.25 248.995 239.709 253.536 234.108 253.536H191.007C185.406 253.536 180.866 248.995 180.866 243.394V200.293C180.866 194.692 176.325 190.152 170.724 190.152H127.623C122.022 190.152 117.482 185.611 117.482 180.01V136.909C117.482 131.308 112.941 126.768 107.341 126.768H74.3809C68.7799 126.768 64.2394 131.308 64.2394 136.909V190.152V243.394C64.2394 248.995 59.6989 253.536 54.098 253.536H10.9969C5.39594 253.536 0.855469 248.995 0.855469 243.394V190.152V136.909C0.855469 131.308 5.39594 126.768 10.9969 126.768H49.0273C54.6282 126.768 59.1687 122.227 59.1687 116.626V63.384V10.1414ZM170.724 126.768C176.325 126.768 180.866 122.227 180.866 116.626V73.5254C180.866 67.9244 176.325 63.384 170.724 63.384H132.694C127.093 63.384 122.553 67.9244 122.553 73.5254V116.626C122.553 122.227 127.093 126.768 132.694 126.768H170.724Z" fill="url(#paint0_radial_434_599)"/>
<defs>
<radialGradient id="paint0_radial_434_599" cx="0" cy="0" r="1" gradientUnits="userSpaceOnUse" gradientTransform="translate(62.4647 34.988) rotate(55.1602) scale(711.412 682.955)">
<stop stop-color="#FEA3CD"/>
<stop offset="1" stop-color="#E6F0FF"/>
</radialGradient>
</defs>
</svg>
